<?xml version="1.0" encoding="UTF-8" standalone="no"?>
<!DOCTYPE svg PUBLIC "-//W3C//DTD SVG 1.1//EN" "http://www.w3.org/Graphics/SVG/1.1/DTD/svg11.dtd">
<svg width="100%" height="100%" viewBox="0 0 1281 281" version="1.1" xmlns="http://www.w3.org/2000/svg" xmlns:xlink="http://www.w3.org/1999/xlink" xml:space="preserve" xmlns:serif="http://www.serif.com/" style="fill-rule:evenodd;clip-rule:evenodd;stroke-linejoin:round;stroke-miterlimit:2;">
    <g transform="matrix(1,0,0,1,0,-377)">
        <g id="logo-inverted" transform="matrix(1.310239,0,0,1,0.823799,377.757657)">
            <rect x="0" y="0" width="976.921" height="280.242" style="fill:none;"/>
            <g transform="matrix(0.976505,0,0,1.279455,37.570542,24.163302)">
                <path d="M132.911,151.165L147.037,165.291C150.624,168.878 156.448,168.878 160.035,165.291C163.622,161.704 163.622,155.88 160.035,152.293L145.909,138.167C149.35,132.455 151.331,125.763 151.331,118.612L151.331,58.938C151.331,37.98 134.315,20.964 113.357,20.964C113.357,20.964 55.789,20.964 55.789,20.964C34.83,20.964 17.814,37.98 17.814,58.938L17.814,118.612C17.814,139.571 34.83,156.587 55.789,156.587C55.789,156.587 113.357,156.587 113.357,156.587C120.508,156.587 127.2,154.606 132.911,151.165ZM243.711,68.668L243.711,107.398C243.711,123.812 230.385,137.138 213.971,137.138C197.557,137.138 184.23,123.812 184.23,107.398L184.23,68.668C184.23,63.707 180.202,59.679 175.241,59.679C170.28,59.679 166.252,63.707 166.252,68.668L166.252,107.398C166.252,133.735 187.634,155.117 213.971,155.117C240.308,155.117 261.69,133.735 261.69,107.398C261.69,107.398 261.69,68.668 261.69,68.668C261.69,63.707 257.662,59.679 252.701,59.679C247.739,59.679 243.711,63.707 243.711,68.668ZM537.448,68.668L537.448,146.127C537.448,151.089 541.476,155.117 546.437,155.117C551.399,155.117 555.427,151.089 555.427,146.127L555.427,68.668C555.427,63.707 551.399,59.679 546.437,59.679C541.476,59.679 537.448,63.707 537.448,68.668ZM324.8,135.814C322.018,136.676 319.062,137.138 315.998,137.138C299.583,137.138 286.257,123.812 286.257,107.398C286.257,90.983 299.583,77.657 315.998,77.657C332.412,77.657 345.738,90.983 345.738,107.398L345.738,146.127C345.738,151.089 349.766,155.117 354.727,155.117C359.689,155.117 363.717,151.089 363.717,146.127L363.717,107.398C363.717,81.061 342.334,59.679 315.998,59.679C289.661,59.679 268.278,81.061 268.278,107.398C268.278,133.735 289.661,155.117 315.998,155.117C320.914,155.117 325.657,154.37 330.122,152.986C334.861,151.518 337.516,146.478 336.048,141.739C334.579,137 329.539,134.345 324.8,135.814ZM711.116,135.814C708.334,136.676 705.377,137.138 702.313,137.138C685.899,137.138 672.573,123.812 672.573,107.398C672.573,90.983 685.899,77.657 702.313,77.657C718.727,77.657 732.054,90.983 732.054,107.398C732.054,107.398 732.054,146.127 732.054,146.127C732.054,151.089 736.082,155.117 741.043,155.117C746.004,155.117 750.032,151.089 750.032,146.127L750.032,107.398C750.032,81.061 728.65,59.679 702.313,59.679C675.976,59.679 654.594,81.061 654.594,107.398C654.594,133.735 675.976,155.117 702.313,155.117C707.23,155.117 711.973,154.37 716.437,152.986C721.176,151.518 723.832,146.478 722.363,141.739C720.895,137 715.855,134.345 711.116,135.814ZM521.144,59.679C494.807,59.679 473.425,81.061 473.425,107.398C473.425,107.398 473.425,146.127 473.425,146.127C473.425,151.089 477.453,155.117 482.414,155.117C487.376,155.117 491.403,151.089 491.403,146.127L491.403,107.398C491.403,90.983 504.73,77.657 521.144,77.657C526.105,77.657 530.133,73.629 530.133,68.668C530.133,63.707 526.105,59.679 521.144,59.679ZM863.961,77.657L895.14,77.657C900.101,77.657 904.129,73.629 904.129,68.668C904.129,63.707 900.101,59.679 895.14,59.679L863.961,59.679L863.961,31.156C863.961,26.195 859.933,22.167 854.972,22.167C850.01,22.167 845.982,26.195 845.982,31.156L845.982,107.398C845.982,133.735 867.365,155.117 893.702,155.117C898.663,155.117 902.691,151.089 902.691,146.127C902.691,141.166 898.663,137.138 893.702,137.138C877.287,137.138 863.961,123.812 863.961,107.398L863.961,77.657ZM432.515,61.809C428.051,60.425 423.307,59.679 418.391,59.679C392.054,59.679 370.672,81.061 370.672,107.398C370.672,133.735 392.054,155.117 418.391,155.117C444.728,155.117 466.11,133.735 466.11,107.398C466.11,107.398 466.11,31.156 466.11,31.156C466.11,26.195 462.082,22.167 457.121,22.167C452.159,22.167 448.132,26.195 448.132,31.156L448.132,107.398C448.132,123.812 434.805,137.138 418.391,137.138C401.977,137.138 388.65,123.812 388.65,107.398C388.65,90.983 401.977,77.657 418.391,77.657C421.455,77.657 424.412,78.12 427.194,78.982C431.933,80.45 436.973,77.795 438.441,73.056C439.909,68.317 437.254,63.277 432.515,61.809ZM767.253,155.117L811.788,155.117C827.437,155.117 840.142,142.412 840.142,126.763C840.142,111.113 827.437,98.408 811.788,98.408L785.643,98.408C779.917,98.408 775.268,93.759 775.268,88.033C775.268,82.306 779.917,77.657 785.643,77.657L819.391,77.657C824.352,77.657 828.38,73.629 828.38,68.668C828.38,63.707 824.352,59.679 819.391,59.679L785.643,59.679C769.994,59.679 757.289,72.384 757.289,88.033C757.289,103.682 769.994,116.387 785.643,116.387C785.643,116.387 811.788,116.387 811.788,116.387C817.515,116.387 822.164,121.036 822.164,126.763C822.164,132.489 817.515,137.138 811.788,137.138C811.788,137.138 767.253,137.138 767.253,137.138C762.292,137.138 758.264,141.166 758.264,146.127C758.264,151.089 762.292,155.117 767.253,155.117ZM634.554,124.339C632.896,126.733 630.853,128.92 628.441,130.81C615.52,140.932 596.811,138.659 586.689,125.738C576.567,112.816 578.839,94.108 591.761,83.985C604.682,73.863 623.391,76.136 633.513,89.057C636.573,92.963 642.228,93.65 646.133,90.591C650.039,87.531 650.726,81.876 647.666,77.971C631.425,57.238 601.407,53.591 580.674,69.832C559.941,86.074 556.294,116.092 572.536,136.825C588.777,157.558 618.795,161.204 639.528,144.963C643.399,141.931 646.672,138.418 649.333,134.576C652.158,130.498 651.141,124.893 647.062,122.068C642.984,119.243 637.379,120.26 634.554,124.339ZM132.949,81.811L132.949,58.938C132.949,48.125 124.17,39.346 113.357,39.346L55.789,39.346C44.975,39.346 36.196,48.125 36.196,58.938C36.196,58.938 36.196,118.612 36.196,118.612C36.196,129.426 44.975,138.205 55.789,138.205L75.974,138.205C70.897,131.444 67.888,123.042 67.888,113.943C67.888,91.607 86.021,73.474 108.356,73.474C117.603,73.474 126.129,76.582 132.949,81.811ZM132.949,90.921C126.8,84.355 118.054,80.249 108.356,80.249C89.76,80.249 74.662,95.347 74.662,113.943C74.662,123.467 78.623,132.075 84.986,138.205L96.009,138.205C88.277,133.533 83.103,125.047 83.103,115.361C83.103,100.641 95.054,88.69 109.774,88.69C119.692,88.69 128.354,94.116 132.949,102.16L132.949,90.921ZM128.832,121.089C129.377,119.275 129.67,117.352 129.67,115.361C129.67,104.38 120.755,95.465 109.774,95.465C98.793,95.465 89.878,104.38 89.878,115.361C89.878,126.342 98.793,135.257 109.774,135.257C111.951,135.257 114.046,134.907 116.006,134.26L106.354,124.608C102.767,121.021 102.767,115.196 106.354,111.61C109.941,108.023 115.765,108.023 119.352,111.61L128.832,121.089ZM546.437,13.281C551.399,13.281 555.427,17.309 555.427,22.27C555.427,27.231 551.399,31.259 546.437,31.259C541.476,31.259 537.448,27.231 537.448,22.27C537.448,17.309 541.476,13.281 546.437,13.281Z" style="fill:rgb(155,195,29);"/>
            </g>
        </g>
    </g>
</svg>
