<?xml version="1.0" encoding="UTF-8" standalone="no"?>
<!DOCTYPE svg PUBLIC "-//W3C//DTD SVG 1.1//EN" "http://www.w3.org/Graphics/SVG/1.1/DTD/svg11.dtd">
<svg width="100%" height="100%" viewBox="0 0 745 281" version="1.1" xmlns="http://www.w3.org/2000/svg" xmlns:xlink="http://www.w3.org/1999/xlink" xml:space="preserve" xmlns:serif="http://www.serif.com/" style="fill-rule:evenodd;clip-rule:evenodd;stroke-linejoin:round;stroke-miterlimit:2;">
    <g transform="matrix(1,0,0,1,0,-7)">
        <g id="logo" transform="matrix(0.762146,0,0,1,0,7.757657)">
            <rect x="0" y="0" width="976.921" height="280.242" style="fill:none;"/>
            <clipPath id="_clip1">
                <rect x="0" y="0" width="976.921" height="280.242"/>
            </clipPath>
            <g clip-path="url(#_clip1)">
                <g transform="matrix(0.58312,0,0,0.444422,-1964.002311,-987.911979)">
                    <g transform="matrix(2.357296,0,0,2.357296,-4611.352815,-3145.828737)">
                        <g transform="matrix(0.2766,0,0,0.2766,3370.922938,2265.890506)">
                            <circle cx="533" cy="524.079" r="482.107"/>
                        </g>
                        <g transform="matrix(0.2286,0,0,0.2286,3400.829329,2295.368675)">
                            <circle cx="533" cy="524.079" r="482.107" style="fill:rgb(253,13,74);"/>
                        </g>
                        <g transform="matrix(0.098754,0,0,0.098754,3552.254727,2445.635694)">
                            <circle cx="533" cy="524.079" r="482.107"/>
                        </g>
                        <g transform="matrix(0.066335,0,0,0.066335,3565.544879,2459.344467)">
                            <circle cx="533" cy="524.079" r="482.107" style="fill:rgb(17,75,170);"/>
                        </g>
                    </g>
                    <g transform="matrix(38.599398,0,0,38.599398,-12324.834439,-4144.747984)">
                        <path d="M427.92,179.767C427.193,179.767 426.541,179.637 425.964,179.375C425.387,179.114 424.93,178.759 424.593,178.311C424.256,177.863 424.088,177.367 424.088,176.823L426.328,176.823C426.37,177.165 426.538,177.447 426.832,177.671C427.125,177.895 427.49,178.007 427.928,178.007C428.354,178.007 428.688,177.922 428.928,177.751C429.168,177.581 429.288,177.362 429.288,177.095C429.288,176.807 429.141,176.591 428.848,176.447C428.554,176.303 428.088,176.146 427.448,175.975C426.786,175.815 426.245,175.65 425.824,175.479C425.402,175.309 425.04,175.047 424.736,174.695C424.432,174.343 424.28,173.869 424.28,173.271C424.28,172.781 424.421,172.333 424.704,171.927C424.986,171.522 425.392,171.202 425.92,170.967C426.448,170.733 427.069,170.615 427.784,170.615C428.84,170.615 429.682,170.879 430.312,171.407C430.941,171.935 431.288,172.647 431.352,173.543L429.208,173.543C429.176,173.191 429.029,172.911 428.768,172.703C428.506,172.495 428.157,172.391 427.72,172.391C427.314,172.391 427.002,172.466 426.784,172.615C426.565,172.765 426.456,172.973 426.456,173.239C426.456,173.538 426.605,173.765 426.904,173.919C427.202,174.074 427.666,174.231 428.296,174.391C428.936,174.551 429.464,174.717 429.88,174.887C430.296,175.058 430.656,175.322 430.96,175.679C431.264,176.037 431.416,176.509 431.416,177.095C431.416,177.607 431.274,178.066 430.991,178.471C430.707,178.877 430.301,179.194 429.772,179.423C429.243,179.653 428.626,179.767 427.92,179.767Z" style="fill-rule:nonzero;"/>
                        <g transform="matrix(1,0,0,1,-1.107585,0)">
                            <path d="M434.408,169.703C434.013,169.703 433.685,169.578 433.424,169.327C433.162,169.077 433.032,168.765 433.032,168.391C433.032,168.018 433.162,167.706 433.424,167.455C433.685,167.205 434.013,167.079 434.408,167.079C434.802,167.079 435.13,167.205 435.392,167.455C435.653,167.706 435.784,168.018 435.784,168.391C435.784,168.765 435.653,169.077 435.392,169.327C435.13,169.578 434.802,169.703 434.408,169.703ZM435.512,170.759L435.512,179.623L433.272,179.623L433.272,170.759L435.512,170.759Z" style="fill-rule:nonzero;"/>
                        </g>
                        <g transform="matrix(1,0,0,1,-1.748819,0)">
                            <path d="M440.328,172.599L440.328,176.887C440.328,177.186 440.4,177.402 440.544,177.535C440.688,177.669 440.93,177.735 441.272,177.735L442.312,177.735L442.312,179.623L440.904,179.623C439.016,179.623 438.072,178.706 438.072,176.871L438.072,172.599L437.016,172.599L437.016,170.759L438.072,170.759L438.072,168.567L440.328,168.567L440.328,170.759L442.312,170.759L442.312,172.599L440.328,172.599Z" style="fill-rule:nonzero;"/>
                        </g>
                        <g transform="matrix(1,0,0,1,-2.623228,0)">
                            <path d="M452.168,174.999C452.168,175.319 452.146,175.607 452.104,175.863L445.624,175.863C445.677,176.503 445.901,177.005 446.296,177.367C446.69,177.73 447.176,177.911 447.752,177.911C448.584,177.911 449.176,177.554 449.528,176.839L451.944,176.839C451.688,177.693 451.197,178.394 450.472,178.943C449.746,179.493 448.856,179.767 447.8,179.767C446.946,179.767 446.181,179.578 445.504,179.199C444.826,178.821 444.298,178.285 443.92,177.591C443.541,176.898 443.352,176.098 443.352,175.191C443.352,174.274 443.538,173.469 443.912,172.775C444.285,172.082 444.808,171.549 445.48,171.175C446.152,170.802 446.925,170.615 447.8,170.615C448.642,170.615 449.397,170.797 450.064,171.159C450.73,171.522 451.248,172.037 451.616,172.703C451.984,173.37 452.168,174.135 452.168,174.999ZM449.832,174.359C449.832,173.783 449.629,173.322 449.224,172.975C448.818,172.629 448.322,172.455 447.736,172.455C447.181,172.455 446.714,172.623 446.336,172.959C445.957,173.295 445.725,173.762 445.64,174.359L449.832,174.359Z" style="fill-rule:nonzero;"/>
                        </g>
                    </g>
                </g>
            </g>
        </g>
    </g>
</svg>
